<svg width="148" height="24" viewBox="0 0 148 24" fill="none" xmlns="http://www.w3.org/2000/svg">
<g clip-path="url(#clip0_1_56)">
<path fill-rule="evenodd" clip-rule="evenodd" d="M74.4147 6.36076e-06C70.3597 -0.00296524 66.4357 1.03535 63.3459 2.92889C60.2562 4.82242 58.2027 7.4474 57.5534 10.3334C56.9042 13.2194 57.7016 16.1778 59.8028 18.6784C61.9039 21.179 65.1716 23.0584 69.02 23.9798C69.879 24.0931 70.1828 23.7079 70.1828 23.3831C70.1828 23.0584 70.1828 22.3182 70.1828 21.291C65.4165 22.0387 64.4109 19.637 64.4109 19.637C64.0947 18.8926 63.423 18.2531 62.5149 17.8319C60.975 17.0766 62.6406 17.0766 62.6406 17.0766C63.1804 17.1316 63.6958 17.2744 64.1477 17.4942C64.5996 17.7141 64.9762 18.0052 65.2489 18.3455C65.4807 18.6485 65.7932 18.9155 66.1684 19.1312C66.5437 19.347 66.9744 19.5071 67.4357 19.6026C67.897 19.698 68.3799 19.7268 68.8567 19.6874C69.3335 19.6479 69.7948 19.541 70.2142 19.3726C70.2799 18.7513 70.6514 18.1674 71.2617 17.7262C67.4697 17.4165 63.4891 16.3591 63.4891 11.684C63.4631 10.4627 64.0894 9.28099 65.2385 8.38349C64.7267 7.3216 64.7865 6.15988 65.4061 5.12828C65.4061 5.12828 66.8412 4.79596 70.099 6.38958C72.8965 5.83579 75.8492 5.83579 78.6467 6.38958C81.9045 4.79596 83.3291 5.12828 83.3291 5.12828C83.9574 6.14897 84.032 7.30235 83.5386 8.36083C84.6877 9.25834 85.314 10.4401 85.288 11.6614C85.288 16.3893 81.297 17.4241 77.4944 17.7035C77.9021 17.999 78.217 18.3543 78.4176 18.7452C78.6182 19.1361 78.7 19.5536 78.6572 19.9693C78.6572 21.6158 78.6572 22.9451 78.6572 23.3454C78.6572 23.7456 78.9609 24.0553 79.8305 23.9345C83.6351 22.9888 86.8538 21.1041 88.9178 18.6132C90.9819 16.1223 91.7585 13.1856 91.1105 10.3219C90.4626 7.45814 88.4316 4.85167 85.3766 2.96295C82.3216 1.07422 78.439 0.024771 74.4147 6.36076e-06Z" fill="url(#paint0_linear_1_56)"/>
</g>
<g clip-path="url(#clip1_1_56)">
<path fill-rule="evenodd" clip-rule="evenodd" d="M114 11.7908C114 5.2781 121.766 0 130.989 0C140.202 0 147.689 5.48618 147.689 11.9965C147.689 18.5069 140.208 23.9884 130.985 23.9884L114 24V11.7908ZM122.26 8.13398C124.126 5.9215 127.504 4.56533 131.152 4.56381H131.162C135.387 4.56526 139.187 6.37901 140.763 9.14636C142.339 11.9137 141.374 15.0793 138.325 17.1445C135.277 19.2096 130.756 19.7599 126.904 18.5347L120.177 19.6074L122.05 15.3535C120.314 13.0889 120.394 10.3465 122.26 8.13398Z" fill="url(#paint1_linear_1_56)"/>
</g>
<g clip-path="url(#clip2_1_56)">
<path fill-rule="evenodd" clip-rule="evenodd" d="M0.666626 12C0.666626 5.37258 8.27778 0 17.6666 0C27.0554 0 34.6666 5.37258 34.6666 12C34.6666 18.6274 27.0554 24 17.6666 24C8.27778 24 0.666626 18.6274 0.666626 12ZM17.1575 9.75375L17.1932 10.169L16.5986 10.1181C14.4344 9.92323 12.5437 9.26226 10.9384 8.15216L10.1536 7.60135L9.95144 8.0081C9.52336 8.91482 9.79686 9.87239 10.6887 10.5164C11.1643 10.8723 11.0573 10.9232 10.2368 10.7113C9.95145 10.6435 9.70173 10.5927 9.67794 10.6181C9.59471 10.6774 9.8801 11.4486 10.106 11.7536C10.4152 12.1773 11.0454 12.5925 11.7351 12.8383L12.3178 13.0332L11.6281 13.0417C10.9622 13.0417 10.9384 13.0501 11.0098 13.2281C11.2476 13.7789 12.187 14.3636 13.2334 14.6178L13.9707 14.7958L13.3285 15.067C12.3772 15.4568 11.2595 15.6771 10.1417 15.694C9.6066 15.7025 9.16663 15.7364 9.16663 15.7618C9.16663 15.8466 10.6173 16.3211 11.4616 16.5075C13.9944 17.0584 17.0029 16.8211 19.2622 15.8805C20.8676 15.211 22.4728 13.8806 23.2219 12.5925C23.6263 11.9062 24.0306 10.652 24.0306 10.0503C24.0306 9.66054 24.0663 9.60969 24.7321 9.14362C25.1245 8.87245 25.4931 8.57586 25.5645 8.49112C25.6834 8.33011 25.6715 8.33011 25.065 8.47417C24.0544 8.72839 23.9117 8.6945 24.4111 8.31317C24.7797 8.042 25.2197 7.5505 25.2197 7.40645C25.2197 7.38102 25.0414 7.42339 24.8392 7.49966C24.6252 7.5844 24.1494 7.71151 23.7927 7.78778L23.1507 7.93184L22.568 7.65219C22.2469 7.49966 21.7951 7.33018 21.5572 7.27934C20.9507 7.1607 20.0233 7.17765 19.4763 7.31323C17.9899 7.69456 17.0505 8.67755 17.1575 9.75375Z" fill="url(#paint2_linear_1_56)"/>
</g>
<defs>
<linearGradient id="paint0_linear_1_56" x1="62.2208" y1="3.45" x2="78.4024" y2="28.3912" gradientUnits="userSpaceOnUse">
<stop stop-color="#FFAD33"/>
<stop offset="1" stop-color="#FF8A00"/>
</linearGradient>
<linearGradient id="paint1_linear_1_56" x1="118.843" y1="3.45" x2="135.085" y2="28.2549" gradientUnits="userSpaceOnUse">
<stop stop-color="#FFAD33"/>
<stop offset="1" stop-color="#FF8A00"/>
</linearGradient>
<linearGradient id="paint2_linear_1_56" x1="5.55413" y1="3.45" x2="21.7357" y2="28.3912" gradientUnits="userSpaceOnUse">
<stop stop-color="#FFAD33"/>
<stop offset="1" stop-color="#FF8A00"/>
</linearGradient>
<clipPath id="clip0_1_56">
<rect width="34" height="24" fill="white" transform="translate(57.3333)"/>
</clipPath>
<clipPath id="clip1_1_56">
<rect width="34" height="24" fill="white" transform="translate(114)"/>
</clipPath>
<clipPath id="clip2_1_56">
<rect width="34" height="24" fill="white" transform="translate(0.666626)"/>
</clipPath>
</defs>
</svg>
