<svg width="250" height="25" viewBox="0 0 250 25" fill="none" xmlns="http://www.w3.org/2000/svg">
<g clip-path="url(#clip0_1_70)">
<path fill-rule="evenodd" clip-rule="evenodd" d="M19.9325 1.19512C20.1526 1.46555 20.2948 1.76406 20.3507 2.07344C20.4067 2.38283 20.3754 2.69697 20.2586 2.99777C20.1417 3.29857 19.9418 3.58008 19.6701 3.82608C19.3985 4.07208 19.0606 4.27771 18.6759 4.43112L8.60341 8.47112C8.47306 8.5233 8.36457 8.59889 8.28894 8.69021C8.21331 8.78153 8.17322 8.88534 8.17275 8.99112V15.3341C8.17322 15.4399 8.21331 15.5437 8.28894 15.635C8.36457 15.7263 8.47306 15.8019 8.60341 15.8541L16.5764 19.0531C16.7055 19.1049 16.8515 19.1322 17 19.1322C17.1485 19.1322 17.2945 19.1049 17.4236 19.0531L25.3966 15.8551C25.5271 15.8028 25.6358 15.7271 25.7114 15.6356C25.7871 15.5441 25.827 15.4401 25.8272 15.3341V11.3901L18.6589 14.2281C17.8789 14.5371 16.9575 14.6159 16.0956 14.4473C15.2336 14.2787 14.501 13.8764 14.0576 13.3281C13.8398 13.0569 13.7002 12.7579 13.6468 12.4484C13.5934 12.1389 13.6273 11.825 13.7464 11.5248C13.8656 11.2246 14.0677 10.944 14.3412 10.6991C14.6146 10.4543 14.9539 10.25 15.3397 10.0981L25.5949 6.03612C28.7187 4.80012 32.5833 6.38312 32.5833 8.90112V15.8151C32.5833 17.4351 31.3466 18.9301 29.3434 19.7341L20.1903 23.4051C19.2178 23.795 18.1185 24 17 24C15.8815 24 14.7822 23.795 13.8097 23.4051L4.65658 19.7341C3.67401 19.3413 2.85651 18.7717 2.28737 18.0833C1.71823 17.3948 1.41779 16.6122 1.41666 15.8151V8.51012C1.41666 6.89012 2.65341 5.39512 4.65658 4.59212L15.3241 0.312117C16.1018 0.000134438 17.0228 -0.0821194 17.8861 0.0832947C18.7494 0.248709 19.485 0.648371 19.9325 1.19512Z" fill="url(#paint0_linear_1_70)"/>
</g>
<path d="M156.465 16.1094V17H150.882V16.2207L153.676 13.1094C154.02 12.7266 154.286 12.4023 154.473 12.1367C154.665 11.8672 154.798 11.627 154.872 11.416C154.95 11.2012 154.989 10.9824 154.989 10.7598C154.989 10.4785 154.93 10.2246 154.813 9.99805C154.7 9.76758 154.532 9.58398 154.309 9.44727C154.087 9.31055 153.817 9.24219 153.501 9.24219C153.122 9.24219 152.805 9.31641 152.551 9.46484C152.301 9.60938 152.114 9.8125 151.989 10.0742C151.864 10.3359 151.801 10.6367 151.801 10.9766H150.717C150.717 10.4961 150.823 10.0566 151.034 9.6582C151.245 9.25977 151.557 8.94336 151.971 8.70898C152.385 8.4707 152.895 8.35156 153.501 8.35156C154.04 8.35156 154.501 8.44727 154.883 8.63867C155.266 8.82617 155.559 9.0918 155.762 9.43555C155.969 9.77539 156.073 10.1738 156.073 10.6309C156.073 10.8809 156.03 11.1348 155.944 11.3926C155.862 11.6465 155.747 11.9004 155.598 12.1543C155.454 12.4082 155.284 12.6582 155.089 12.9043C154.897 13.1504 154.692 13.3926 154.473 13.6309L152.188 16.1094H156.465ZM162.981 12.0547V13.3555C162.981 14.0547 162.919 14.6445 162.794 15.125C162.669 15.6055 162.489 15.9922 162.255 16.2852C162.02 16.5781 161.737 16.791 161.405 16.9238C161.077 17.0527 160.706 17.1172 160.292 17.1172C159.964 17.1172 159.661 17.0762 159.383 16.9941C159.106 16.9121 158.856 16.7812 158.633 16.6016C158.415 16.418 158.227 16.1797 158.071 15.8867C157.915 15.5938 157.796 15.2383 157.714 14.8203C157.632 14.4023 157.59 13.9141 157.59 13.3555V12.0547C157.59 11.3555 157.653 10.7695 157.778 10.2969C157.907 9.82422 158.089 9.44531 158.323 9.16016C158.557 8.87109 158.839 8.66406 159.167 8.53906C159.499 8.41406 159.87 8.35156 160.28 8.35156C160.612 8.35156 160.917 8.39258 161.194 8.47461C161.475 8.55273 161.725 8.67969 161.944 8.85547C162.163 9.02734 162.348 9.25781 162.501 9.54688C162.657 9.83203 162.776 10.1816 162.858 10.5957C162.94 11.0098 162.981 11.4961 162.981 12.0547ZM161.891 13.5312V11.873C161.891 11.4902 161.868 11.1543 161.821 10.8652C161.778 10.5723 161.714 10.3223 161.628 10.1152C161.542 9.9082 161.432 9.74023 161.299 9.61133C161.171 9.48242 161.02 9.38867 160.848 9.33008C160.68 9.26758 160.491 9.23633 160.28 9.23633C160.022 9.23633 159.794 9.28516 159.594 9.38281C159.395 9.47656 159.227 9.62695 159.09 9.83398C158.958 10.041 158.856 10.3125 158.786 10.6484C158.715 10.9844 158.68 11.3926 158.68 11.873V13.5312C158.68 13.9141 158.702 14.252 158.745 14.5449C158.792 14.8379 158.86 15.0918 158.95 15.3066C159.04 15.5176 159.149 15.6914 159.278 15.8281C159.407 15.9648 159.555 16.0664 159.723 16.1328C159.895 16.1953 160.085 16.2266 160.292 16.2266C160.557 16.2266 160.79 16.1758 160.989 16.0742C161.188 15.9727 161.354 15.8145 161.487 15.5996C161.624 15.3809 161.725 15.1016 161.792 14.7617C161.858 14.418 161.891 14.0078 161.891 13.5312ZM169.965 16.1094V17H164.382V16.2207L167.176 13.1094C167.52 12.7266 167.786 12.4023 167.973 12.1367C168.165 11.8672 168.298 11.627 168.372 11.416C168.45 11.2012 168.489 10.9824 168.489 10.7598C168.489 10.4785 168.43 10.2246 168.313 9.99805C168.2 9.76758 168.032 9.58398 167.809 9.44727C167.587 9.31055 167.317 9.24219 167.001 9.24219C166.622 9.24219 166.305 9.31641 166.051 9.46484C165.801 9.60938 165.614 9.8125 165.489 10.0742C165.364 10.3359 165.301 10.6367 165.301 10.9766H164.217C164.217 10.4961 164.323 10.0566 164.534 9.6582C164.745 9.25977 165.057 8.94336 165.471 8.70898C165.885 8.4707 166.395 8.35156 167.001 8.35156C167.54 8.35156 168.001 8.44727 168.383 8.63867C168.766 8.82617 169.059 9.0918 169.262 9.43555C169.469 9.77539 169.573 10.1738 169.573 10.6309C169.573 10.8809 169.53 11.1348 169.444 11.3926C169.362 11.6465 169.247 11.9004 169.098 12.1543C168.954 12.4082 168.784 12.6582 168.589 12.9043C168.397 13.1504 168.192 13.3926 167.973 13.6309L165.688 16.1094H169.965ZM174.688 8.42188V17H173.604V9.77539L171.419 10.5723V9.59375L174.518 8.42188H174.688Z" fill="#12100C"/>
<path d="M51.9857 14.061H53.2044C53.1409 14.645 52.9738 15.1676 52.703 15.6289C52.4321 16.0902 52.0491 16.4562 51.554 16.7271C51.0589 16.9937 50.4411 17.127 49.7005 17.127C49.1588 17.127 48.6658 17.0254 48.2215 16.8223C47.7814 16.6191 47.4027 16.3314 47.0853 15.959C46.7679 15.5824 46.5225 15.1317 46.349 14.6069C46.1797 14.078 46.095 13.4897 46.095 12.8423V11.9219C46.095 11.2744 46.1797 10.6883 46.349 10.1636C46.5225 9.6346 46.77 9.1818 47.0916 8.80518C47.4175 8.42855 47.8089 8.13867 48.2659 7.93555C48.723 7.73242 49.2371 7.63086 49.8084 7.63086C50.5067 7.63086 51.097 7.76204 51.5794 8.02441C52.0618 8.28678 52.4364 8.65072 52.703 9.11621C52.9738 9.57747 53.1409 10.1128 53.2044 10.7222H51.9857C51.9264 10.2905 51.8164 9.92025 51.6556 9.61133C51.4948 9.29818 51.2663 9.05697 50.97 8.8877C50.6738 8.71842 50.2866 8.63379 49.8084 8.63379C49.3979 8.63379 49.0361 8.71208 48.723 8.86865C48.4141 9.02523 48.1538 9.2474 47.9422 9.53516C47.7349 9.82292 47.5783 10.1678 47.4725 10.5698C47.3667 10.9718 47.3138 11.4183 47.3138 11.9092V12.8423C47.3138 13.2951 47.3603 13.7204 47.4534 14.1182C47.5508 14.516 47.6968 14.8651 47.8914 15.1655C48.0861 15.466 48.3337 15.703 48.6341 15.8765C48.9346 16.0457 49.29 16.1304 49.7005 16.1304C50.221 16.1304 50.6357 16.0479 50.9447 15.8828C51.2536 15.7178 51.4863 15.4808 51.6429 15.1719C51.8037 14.863 51.918 14.4927 51.9857 14.061ZM54.3851 13.6421V13.4961C54.3851 13.001 54.457 12.5418 54.6009 12.1187C54.7448 11.6912 54.9521 11.321 55.223 11.0078C55.4938 10.6904 55.8218 10.445 56.2069 10.2715C56.592 10.0938 57.0236 10.0049 57.5018 10.0049C57.9842 10.0049 58.418 10.0938 58.8031 10.2715C59.1924 10.445 59.5225 10.6904 59.7933 11.0078C60.0684 11.321 60.2778 11.6912 60.4217 12.1187C60.5656 12.5418 60.6375 13.001 60.6375 13.4961V13.6421C60.6375 14.1372 60.5656 14.5964 60.4217 15.0195C60.2778 15.4427 60.0684 15.813 59.7933 16.1304C59.5225 16.4435 59.1945 16.689 58.8094 16.8667C58.4285 17.0402 57.9969 17.127 57.5145 17.127C57.0321 17.127 56.5983 17.0402 56.2132 16.8667C55.8281 16.689 55.498 16.4435 55.223 16.1304C54.9521 15.813 54.7448 15.4427 54.6009 15.0195C54.457 14.5964 54.3851 14.1372 54.3851 13.6421ZM55.5594 13.4961V13.6421C55.5594 13.9849 55.5996 14.3086 55.68 14.6133C55.7604 14.9137 55.881 15.1803 56.0418 15.4131C56.2069 15.6458 56.4121 15.8299 56.6575 15.9653C56.903 16.0965 57.1886 16.1621 57.5145 16.1621C57.8361 16.1621 58.1175 16.0965 58.3587 15.9653C58.6042 15.8299 58.8073 15.6458 58.9681 15.4131C59.1289 15.1803 59.2495 14.9137 59.3299 14.6133C59.4145 14.3086 59.4569 13.9849 59.4569 13.6421V13.4961C59.4569 13.1576 59.4145 12.8381 59.3299 12.5376C59.2495 12.2329 59.1268 11.9642 58.9617 11.7314C58.8009 11.4945 58.5978 11.3083 58.3524 11.1729C58.1112 11.0374 57.8276 10.9697 57.5018 10.9697C57.1802 10.9697 56.8966 11.0374 56.6512 11.1729C56.41 11.3083 56.2069 11.4945 56.0418 11.7314C55.881 11.9642 55.7604 12.2329 55.68 12.5376C55.5996 12.8381 55.5594 13.1576 55.5594 13.4961ZM63.2845 11.4521V19.6406H62.1038V10.1318H63.1829L63.2845 11.4521ZM67.9119 13.5088V13.6421C67.9119 14.1414 67.8527 14.6048 67.7342 15.0322C67.6157 15.4554 67.4422 15.8236 67.2137 16.1367C66.9894 16.4499 66.7122 16.6932 66.3822 16.8667C66.0521 17.0402 65.6733 17.127 65.2459 17.127C64.8101 17.127 64.425 17.055 64.0907 16.9111C63.7563 16.7673 63.4728 16.5578 63.2401 16.2827C63.0073 16.0076 62.8211 15.6776 62.6815 15.2925C62.5461 14.9074 62.453 14.4736 62.4022 13.9912V13.2803C62.453 12.7725 62.5482 12.3175 62.6878 11.9155C62.8275 11.5135 63.0116 11.1707 63.2401 10.8872C63.4728 10.5994 63.7542 10.3815 64.0843 10.2334C64.4144 10.0811 64.7952 10.0049 65.2269 10.0049C65.6585 10.0049 66.0415 10.0895 66.3758 10.2588C66.7101 10.4238 66.9915 10.6608 67.22 10.9697C67.4486 11.2786 67.6199 11.6489 67.7342 12.0806C67.8527 12.508 67.9119 12.984 67.9119 13.5088ZM66.7313 13.6421V13.5088C66.7313 13.166 66.6953 12.8444 66.6234 12.5439C66.5514 12.2393 66.4393 11.9727 66.2869 11.7441C66.1388 11.5114 65.9484 11.3294 65.7157 11.1982C65.4829 11.0628 65.2057 10.9951 64.8841 10.9951C64.5879 10.9951 64.3297 11.0459 64.1097 11.1475C63.8939 11.249 63.7098 11.3866 63.5574 11.5601C63.4051 11.7293 63.2803 11.924 63.1829 12.144C63.0898 12.3599 63.02 12.5841 62.9735 12.8169V14.4609C63.0581 14.7572 63.1766 15.0365 63.3289 15.2988C63.4813 15.557 63.6844 15.7664 63.9383 15.9272C64.1922 16.0838 64.5117 16.1621 64.8968 16.1621C65.2142 16.1621 65.4871 16.0965 65.7157 15.9653C65.9484 15.8299 66.1388 15.6458 66.2869 15.4131C66.4393 15.1803 66.5514 14.9137 66.6234 14.6133C66.6953 14.3086 66.7313 13.9849 66.7313 13.6421ZM71.2635 16.2891L73.1741 10.1318H74.431L71.6761 18.0601C71.6126 18.2293 71.528 18.4113 71.4222 18.606C71.3206 18.8049 71.1894 18.9932 71.0286 19.1709C70.8678 19.3486 70.6732 19.4925 70.4447 19.6025C70.2204 19.7168 69.9517 19.7739 69.6385 19.7739C69.5454 19.7739 69.4269 19.7612 69.283 19.7358C69.1392 19.7104 69.0376 19.6893 68.9783 19.6724L68.972 18.7202C69.0059 18.7244 69.0588 18.7287 69.1307 18.7329C69.2069 18.7414 69.2598 18.7456 69.2894 18.7456C69.556 18.7456 69.7824 18.7096 69.9686 18.6377C70.1548 18.57 70.3114 18.4536 70.4383 18.2886C70.5695 18.1278 70.6816 17.9056 70.7747 17.6221L71.2635 16.2891ZM69.8607 10.1318L71.6444 15.4639L71.9491 16.7017L71.1048 17.1333L68.5784 10.1318H69.8607ZM76.6654 11.2109V17H75.491V10.1318H76.6336L76.6654 11.2109ZM78.8109 10.0938L78.8045 11.1855C78.7072 11.1644 78.6141 11.1517 78.5252 11.1475C78.4406 11.139 78.3433 11.1348 78.2332 11.1348C77.9624 11.1348 77.7233 11.1771 77.5159 11.2617C77.3086 11.3464 77.133 11.4648 76.9891 11.6172C76.8452 11.7695 76.731 11.9515 76.6463 12.1631C76.5659 12.3704 76.513 12.599 76.4876 12.8486L76.1575 13.0391C76.1575 12.6243 76.1977 12.235 76.2782 11.8711C76.3628 11.5072 76.4919 11.1855 76.6654 10.9062C76.8389 10.6227 77.0589 10.4027 77.3255 10.2461C77.5963 10.0853 77.918 10.0049 78.2904 10.0049C78.375 10.0049 78.4723 10.0155 78.5824 10.0366C78.6924 10.0535 78.7685 10.0726 78.8109 10.0938ZM81.1722 10.1318V17H79.9915V10.1318H81.1722ZM79.9027 8.31006C79.9027 8.11963 79.9598 7.95882 80.0741 7.82764C80.1925 7.69645 80.366 7.63086 80.5946 7.63086C80.8188 7.63086 80.9902 7.69645 81.1087 7.82764C81.2314 7.95882 81.2928 8.11963 81.2928 8.31006C81.2928 8.49202 81.2314 8.6486 81.1087 8.77979C80.9902 8.90674 80.8188 8.97021 80.5946 8.97021C80.366 8.97021 80.1925 8.90674 80.0741 8.77979C79.9598 8.6486 79.9027 8.49202 79.9027 8.31006ZM87.5072 10.1318H88.5736V16.854C88.5736 17.4591 88.4508 17.9754 88.2054 18.4028C87.96 18.8302 87.6172 19.154 87.1771 19.374C86.7412 19.5983 86.2376 19.7104 85.6663 19.7104C85.4294 19.7104 85.1501 19.6724 84.8284 19.5962C84.5111 19.5243 84.1979 19.3994 83.889 19.2217C83.5843 19.0482 83.3283 18.8133 83.1209 18.5171L83.7366 17.8188C84.0244 18.1659 84.3249 18.4071 84.638 18.5425C84.9554 18.6779 85.2685 18.7456 85.5775 18.7456C85.9499 18.7456 86.2715 18.6758 86.5423 18.5361C86.8131 18.3965 87.0226 18.1891 87.1707 17.9141C87.3231 17.6432 87.3992 17.3089 87.3992 16.9111V11.6426L87.5072 10.1318ZM82.7782 13.6421V13.5088C82.7782 12.984 82.8395 12.508 82.9622 12.0806C83.0892 11.6489 83.269 11.2786 83.5018 10.9697C83.7388 10.6608 84.0244 10.4238 84.3587 10.2588C84.693 10.0895 85.0697 10.0049 85.4886 10.0049C85.9202 10.0049 86.2969 10.0811 86.6185 10.2334C86.9443 10.3815 87.2194 10.5994 87.4437 10.8872C87.6722 11.1707 87.852 11.5135 87.9832 11.9155C88.1144 12.3175 88.2054 12.7725 88.2562 13.2803V13.8643C88.2096 14.3678 88.1186 14.8206 87.9832 15.2227C87.852 15.6247 87.6722 15.9674 87.4437 16.251C87.2194 16.5345 86.9443 16.7524 86.6185 16.9048C86.2926 17.0529 85.9118 17.127 85.4759 17.127C85.0654 17.127 84.693 17.0402 84.3587 16.8667C84.0286 16.6932 83.7451 16.4499 83.5081 16.1367C83.2712 15.8236 83.0892 15.4554 82.9622 15.0322C82.8395 14.6048 82.7782 14.1414 82.7782 13.6421ZM83.9525 13.5088V13.6421C83.9525 13.9849 83.9863 14.3065 84.054 14.6069C84.126 14.9074 84.2339 15.1719 84.3778 15.4004C84.5259 15.6289 84.7142 15.8088 84.9427 15.9399C85.1712 16.0669 85.4442 16.1304 85.7616 16.1304C86.1509 16.1304 86.4725 16.0479 86.7264 15.8828C86.9803 15.7178 87.1813 15.4998 87.3294 15.229C87.4818 14.9582 87.6003 14.6641 87.6849 14.3467V12.8169C87.6383 12.5841 87.5664 12.3599 87.4691 12.144C87.376 11.924 87.2533 11.7293 87.1009 11.5601C86.9528 11.3866 86.7687 11.249 86.5487 11.1475C86.3286 11.0459 86.0705 10.9951 85.7742 10.9951C85.4526 10.9951 85.1755 11.0628 84.9427 11.1982C84.7142 11.3294 84.5259 11.5114 84.3778 11.7441C84.2339 11.9727 84.126 12.2393 84.054 12.5439C83.9863 12.8444 83.9525 13.166 83.9525 13.5088ZM91.5316 7.25V17H90.3573V7.25H91.5316ZM91.2523 13.3057L90.7635 13.2866C90.7677 12.8169 90.8376 12.3831 90.973 11.9854C91.1084 11.5833 91.2988 11.2342 91.5443 10.938C91.7897 10.6418 92.0817 10.4132 92.4202 10.2524C92.763 10.0874 93.1418 10.0049 93.5565 10.0049C93.895 10.0049 94.1997 10.0514 94.4705 10.1445C94.7414 10.2334 94.972 10.3773 95.1624 10.5762C95.3571 10.7751 95.5052 11.0332 95.6068 11.3506C95.7083 11.6637 95.7591 12.0467 95.7591 12.4995V17H94.5784V12.4868C94.5784 12.1271 94.5255 11.8394 94.4198 11.6235C94.314 11.4035 94.1595 11.2448 93.9564 11.1475C93.7533 11.0459 93.5036 10.9951 93.2074 10.9951C92.9154 10.9951 92.6488 11.0565 92.4075 11.1792C92.1706 11.3019 91.9653 11.4712 91.7918 11.687C91.6226 11.9028 91.4893 12.1504 91.3919 12.4297C91.2988 12.7048 91.2523 12.9967 91.2523 13.3057ZM100.393 10.1318V11.0332H96.6795V10.1318H100.393ZM97.9364 8.4624H99.1107V15.2988C99.1107 15.5316 99.1466 15.7072 99.2186 15.8257C99.2905 15.9442 99.3836 16.0225 99.4979 16.0605C99.6121 16.0986 99.7349 16.1177 99.866 16.1177C99.9634 16.1177 100.065 16.1092 100.171 16.0923C100.281 16.0711 100.363 16.0542 100.418 16.0415L100.425 17C100.332 17.0296 100.209 17.0571 100.056 17.0825C99.9084 17.1121 99.7285 17.127 99.5169 17.127C99.2292 17.127 98.9647 17.0698 98.7235 16.9556C98.4823 16.8413 98.2897 16.6509 98.1458 16.3843C98.0062 16.1134 97.9364 15.7495 97.9364 15.2925V8.4624ZM110.283 13.2041H111.209C111.209 13.8685 111.019 14.3678 110.638 14.7021C110.261 15.0322 109.749 15.1973 109.102 15.1973C108.653 15.1973 108.264 15.0936 107.934 14.8862C107.608 14.6789 107.354 14.3911 107.172 14.0229C106.994 13.6548 106.906 13.2274 106.906 12.7407V12.0107C106.906 11.5241 106.994 11.0967 107.172 10.7285C107.354 10.3604 107.608 10.0726 107.934 9.86523C108.264 9.65788 108.653 9.5542 109.102 9.5542C109.749 9.5542 110.264 9.71924 110.644 10.0493C111.025 10.3794 111.216 10.8766 111.216 11.541H110.289C110.289 11.1221 110.187 10.8216 109.984 10.6396C109.785 10.4577 109.491 10.3667 109.102 10.3667C108.823 10.3667 108.588 10.4365 108.397 10.5762C108.207 10.7158 108.063 10.9105 107.966 11.1602C107.868 11.4056 107.82 11.687 107.82 12.0044V12.7407C107.82 13.0623 107.868 13.348 107.966 13.5977C108.063 13.8431 108.207 14.0356 108.397 14.1753C108.588 14.3149 108.823 14.3848 109.102 14.3848C109.491 14.3848 109.785 14.2938 109.984 14.1118C110.183 13.9299 110.283 13.6273 110.283 13.2041ZM105.414 12.3726C105.414 12.9354 105.511 13.4601 105.706 13.9468C105.901 14.4334 106.171 14.8587 106.518 15.2227C106.865 15.5866 107.267 15.8701 107.724 16.0732C108.181 16.2764 108.67 16.3779 109.191 16.3779C109.711 16.3779 110.198 16.2764 110.651 16.0732C111.108 15.8701 111.508 15.5866 111.85 15.2227C112.197 14.8587 112.468 14.4334 112.663 13.9468C112.858 13.4601 112.955 12.9354 112.955 12.3726C112.955 11.8055 112.858 11.2808 112.663 10.7983C112.468 10.3159 112.197 9.89486 111.85 9.53516C111.508 9.17122 111.108 8.88981 110.651 8.69092C110.198 8.48779 109.711 8.38623 109.191 8.38623C108.67 8.38623 108.181 8.48779 107.724 8.69092C107.267 8.88981 106.865 9.17122 106.518 9.53516C106.171 9.89486 105.901 10.3159 105.706 10.7983C105.511 11.2808 105.414 11.8055 105.414 12.3726ZM104.684 12.3726C104.684 11.6997 104.8 11.0755 105.033 10.5C105.266 9.92448 105.59 9.42301 106.004 8.99561C106.419 8.56396 106.897 8.22965 107.439 7.99268C107.985 7.75146 108.569 7.63086 109.191 7.63086C109.813 7.63086 110.395 7.75146 110.936 7.99268C111.482 8.22965 111.96 8.56396 112.371 8.99561C112.786 9.42301 113.109 9.92448 113.342 10.5C113.575 11.0755 113.691 11.6997 113.691 12.3726C113.691 13.0454 113.575 13.6696 113.342 14.2451C113.109 14.8206 112.786 15.3263 112.371 15.7622C111.96 16.1938 111.482 16.5303 110.936 16.7715C110.395 17.0127 109.813 17.1333 109.191 17.1333C108.569 17.1333 107.985 17.0127 107.439 16.7715C106.897 16.5303 106.419 16.1938 106.004 15.7622C105.59 15.3263 105.266 14.8206 105.033 14.2451C104.8 13.6696 104.684 13.0454 104.684 12.3726Z" fill="#12100C"/>
<path d="M196.32 12.3979V15.7812C196.205 15.9505 196.023 16.141 195.774 16.3525C195.524 16.5599 195.179 16.7419 194.739 16.8984C194.303 17.0508 193.74 17.127 193.05 17.127C192.488 17.127 191.969 17.0296 191.495 16.835C191.026 16.6361 190.617 16.3483 190.27 15.9717C189.927 15.5908 189.661 15.1296 189.47 14.5879C189.284 14.042 189.191 13.4242 189.191 12.7344V12.0171C189.191 11.3273 189.272 10.7116 189.432 10.1699C189.597 9.62826 189.839 9.16911 190.156 8.79248C190.473 8.41162 190.863 8.12386 191.324 7.9292C191.785 7.73031 192.314 7.63086 192.911 7.63086C193.618 7.63086 194.208 7.75358 194.682 7.99902C195.16 8.24023 195.532 8.57454 195.799 9.00195C196.07 9.42936 196.243 9.91602 196.32 10.4619H195.094C195.039 10.1276 194.929 9.82292 194.764 9.54785C194.604 9.27279 194.373 9.05273 194.072 8.8877C193.772 8.71842 193.385 8.63379 192.911 8.63379C192.483 8.63379 192.113 8.71208 191.8 8.86865C191.487 9.02523 191.229 9.24951 191.026 9.5415C190.822 9.8335 190.67 10.1868 190.569 10.6016C190.471 11.0163 190.423 11.4839 190.423 12.0044V12.7344C190.423 13.2676 190.484 13.7437 190.607 14.1626C190.734 14.5815 190.913 14.9391 191.146 15.2354C191.379 15.5273 191.656 15.7495 191.978 15.9019C192.304 16.0542 192.663 16.1304 193.057 16.1304C193.493 16.1304 193.846 16.0944 194.117 16.0225C194.388 15.9463 194.599 15.8574 194.752 15.7559C194.904 15.6501 195.02 15.5506 195.101 15.4575V13.3882H192.962V12.3979H196.32ZM199.449 10.1318V17H198.268V10.1318H199.449ZM198.179 8.31006C198.179 8.11963 198.237 7.95882 198.351 7.82764C198.469 7.69645 198.643 7.63086 198.871 7.63086C199.096 7.63086 199.267 7.69645 199.385 7.82764C199.508 7.95882 199.57 8.11963 199.57 8.31006C199.57 8.49202 199.508 8.6486 199.385 8.77979C199.267 8.90674 199.096 8.97021 198.871 8.97021C198.643 8.97021 198.469 8.90674 198.351 8.77979C198.237 8.6486 198.179 8.49202 198.179 8.31006ZM204.21 10.1318V11.0332H200.496V10.1318H204.21ZM201.753 8.4624H202.927V15.2988C202.927 15.5316 202.963 15.7072 203.035 15.8257C203.107 15.9442 203.2 16.0225 203.315 16.0605C203.429 16.0986 203.552 16.1177 203.683 16.1177C203.78 16.1177 203.882 16.1092 203.987 16.0923C204.098 16.0711 204.18 16.0542 204.235 16.0415L204.241 17C204.148 17.0296 204.026 17.0571 203.873 17.0825C203.725 17.1121 203.545 17.127 203.334 17.127C203.046 17.127 202.781 17.0698 202.54 16.9556C202.299 16.8413 202.106 16.6509 201.963 16.3843C201.823 16.1134 201.753 15.7495 201.753 15.2925V8.4624ZM206.761 11.4521V19.6406H205.581V10.1318H206.66L206.761 11.4521ZM211.389 13.5088V13.6421C211.389 14.1414 211.33 14.6048 211.211 15.0322C211.093 15.4554 210.919 15.8236 210.691 16.1367C210.466 16.4499 210.189 16.6932 209.859 16.8667C209.529 17.0402 209.15 17.127 208.723 17.127C208.287 17.127 207.902 17.055 207.568 16.9111C207.233 16.7673 206.95 16.5578 206.717 16.2827C206.484 16.0076 206.298 15.6776 206.158 15.2925C206.023 14.9074 205.93 14.4736 205.879 13.9912V13.2803C205.93 12.7725 206.025 12.3175 206.165 11.9155C206.304 11.5135 206.488 11.1707 206.717 10.8872C206.95 10.5994 207.231 10.3815 207.561 10.2334C207.891 10.0811 208.272 10.0049 208.704 10.0049C209.135 10.0049 209.518 10.0895 209.853 10.2588C210.187 10.4238 210.468 10.6608 210.697 10.9697C210.925 11.2786 211.097 11.6489 211.211 12.0806C211.33 12.508 211.389 12.984 211.389 13.5088ZM210.208 13.6421V13.5088C210.208 13.166 210.172 12.8444 210.1 12.5439C210.028 12.2393 209.916 11.9727 209.764 11.7441C209.616 11.5114 209.425 11.3294 209.193 11.1982C208.96 11.0628 208.683 10.9951 208.361 10.9951C208.065 10.9951 207.807 11.0459 207.587 11.1475C207.371 11.249 207.187 11.3866 207.034 11.5601C206.882 11.7293 206.757 11.924 206.66 12.144C206.567 12.3599 206.497 12.5841 206.45 12.8169V14.4609C206.535 14.7572 206.654 15.0365 206.806 15.2988C206.958 15.557 207.161 15.7664 207.415 15.9272C207.669 16.0838 207.989 16.1621 208.374 16.1621C208.691 16.1621 208.964 16.0965 209.193 15.9653C209.425 15.8299 209.616 15.6458 209.764 15.4131C209.916 15.1803 210.028 14.9137 210.1 14.6133C210.172 14.3086 210.208 13.9849 210.208 13.6421ZM212.576 13.6421V13.4961C212.576 13.001 212.648 12.5418 212.792 12.1187C212.936 11.6912 213.143 11.321 213.414 11.0078C213.685 10.6904 214.013 10.445 214.398 10.2715C214.783 10.0938 215.214 10.0049 215.693 10.0049C216.175 10.0049 216.609 10.0938 216.994 10.2715C217.383 10.445 217.713 10.6904 217.984 11.0078C218.259 11.321 218.469 11.6912 218.612 12.1187C218.756 12.5418 218.828 13.001 218.828 13.4961V13.6421C218.828 14.1372 218.756 14.5964 218.612 15.0195C218.469 15.4427 218.259 15.813 217.984 16.1304C217.713 16.4435 217.385 16.689 217 16.8667C216.619 17.0402 216.188 17.127 215.705 17.127C215.223 17.127 214.789 17.0402 214.404 16.8667C214.019 16.689 213.689 16.4435 213.414 16.1304C213.143 15.813 212.936 15.4427 212.792 15.0195C212.648 14.5964 212.576 14.1372 212.576 13.6421ZM213.75 13.4961V13.6421C213.75 13.9849 213.79 14.3086 213.871 14.6133C213.951 14.9137 214.072 15.1803 214.233 15.4131C214.398 15.6458 214.603 15.8299 214.848 15.9653C215.094 16.0965 215.379 16.1621 215.705 16.1621C216.027 16.1621 216.308 16.0965 216.549 15.9653C216.795 15.8299 216.998 15.6458 217.159 15.4131C217.32 15.1803 217.44 14.9137 217.521 14.6133C217.605 14.3086 217.648 13.9849 217.648 13.6421V13.4961C217.648 13.1576 217.605 12.8381 217.521 12.5376C217.44 12.2329 217.318 11.9642 217.153 11.7314C216.992 11.4945 216.789 11.3083 216.543 11.1729C216.302 11.0374 216.018 10.9697 215.693 10.9697C215.371 10.9697 215.087 11.0374 214.842 11.1729C214.601 11.3083 214.398 11.4945 214.233 11.7314C214.072 11.9642 213.951 12.2329 213.871 12.5376C213.79 12.8381 213.75 13.1576 213.75 13.4961ZM224.63 15.667V7.25H225.811V17H224.732L224.63 15.667ZM220.009 13.6421V13.5088C220.009 12.984 220.072 12.508 220.199 12.0806C220.331 11.6489 220.515 11.2786 220.752 10.9697C220.993 10.6608 221.279 10.4238 221.609 10.2588C221.943 10.0895 222.315 10.0049 222.726 10.0049C223.157 10.0049 223.534 10.0811 223.856 10.2334C224.181 10.3815 224.457 10.5994 224.681 10.8872C224.909 11.1707 225.089 11.5135 225.22 11.9155C225.352 12.3175 225.443 12.7725 225.493 13.2803V13.8643C225.447 14.3678 225.356 14.8206 225.22 15.2227C225.089 15.6247 224.909 15.9674 224.681 16.251C224.457 16.5345 224.181 16.7524 223.856 16.9048C223.53 17.0529 223.149 17.127 222.713 17.127C222.311 17.127 221.943 17.0402 221.609 16.8667C221.279 16.6932 220.993 16.4499 220.752 16.1367C220.515 15.8236 220.331 15.4554 220.199 15.0322C220.072 14.6048 220.009 14.1414 220.009 13.6421ZM221.19 13.5088V13.6421C221.19 13.9849 221.223 14.3065 221.291 14.6069C221.363 14.9074 221.473 15.1719 221.621 15.4004C221.769 15.6289 221.958 15.8088 222.186 15.9399C222.415 16.0669 222.688 16.1304 223.005 16.1304C223.394 16.1304 223.714 16.0479 223.964 15.8828C224.217 15.7178 224.421 15.4998 224.573 15.229C224.725 14.9582 224.844 14.6641 224.928 14.3467V12.8169C224.878 12.5841 224.804 12.3599 224.706 12.144C224.613 11.924 224.49 11.7293 224.338 11.5601C224.19 11.3866 224.006 11.249 223.786 11.1475C223.57 11.0459 223.314 10.9951 223.018 10.9951C222.696 10.9951 222.419 11.0628 222.186 11.1982C221.958 11.3294 221.769 11.5114 221.621 11.7441C221.473 11.9727 221.363 12.2393 221.291 12.5439C221.223 12.8444 221.19 13.166 221.19 13.5088Z" fill="#12100C"/>
<defs>
<linearGradient id="paint0_linear_1_70" x1="24.8738" y1="3.62912" x2="15.6432" y2="24.3041" gradientUnits="userSpaceOnUse">
<stop stop-color="#FFB45B"/>
<stop offset="1" stop-color="#FF8A00"/>
</linearGradient>
<clipPath id="clip0_1_70">
<rect width="34" height="24" fill="white"/>
</clipPath>
</defs>
</svg>
