<svg width="182" height="32" viewBox="0 0 182 32" fill="none" xmlns="http://www.w3.org/2000/svg">
<g clip-path="url(#clip0_1_239)">
<path fill-rule="evenodd" clip-rule="evenodd" d="M90.2892 0C86.3788 2.63825e-05 82.5959 1.25623 79.6176 3.54383C76.6392 5.83143 74.6597 9.00114 74.0333 12.4858C73.4068 15.9704 74.1743 19.5426 76.1984 22.5632C78.2225 25.5837 81.3711 27.8555 85.0808 28.972C85.9045 29.1019 86.2092 28.6562 86.2092 28.2657C86.2092 27.9126 86.1885 26.7377 86.1885 25.4966C82.0511 26.1842 80.98 24.5857 80.6509 23.7496C80.2842 22.9357 79.7032 22.2149 78.9584 21.6494C78.3819 21.371 77.5582 20.6834 78.9377 20.6647C79.4649 20.7163 79.9705 20.8823 80.4114 21.1483C80.8523 21.4144 81.2155 21.7727 81.47 22.1927C81.6952 22.5579 81.998 22.8795 82.361 23.1389C82.7241 23.3983 83.1403 23.5905 83.5858 23.7044C84.0313 23.8184 84.4973 23.8519 84.9572 23.8029C85.417 23.754 85.8616 23.6237 86.2656 23.4194C86.3368 22.6637 86.7097 21.9572 87.315 21.4312C83.6477 21.0594 79.8216 19.7776 79.8216 14.0908C79.7996 12.6126 80.4052 11.1829 81.5142 10.0951C81.0106 8.81093 81.0694 7.40162 81.6787 6.15535C81.6787 6.15535 83.0582 5.76486 86.2073 7.68336C88.9021 7.01427 91.7469 7.01427 94.4417 7.68336C97.5908 5.75042 98.9703 6.15535 98.9703 6.15535C99.5795 7.40162 99.6384 8.81093 99.1348 10.0951C100.247 11.181 100.853 12.612 100.827 14.0908C100.827 19.7963 96.9777 21.0594 93.3142 21.4312C93.7073 21.7909 94.0099 22.2226 94.2017 22.6972C94.3935 23.1718 94.4699 23.6781 94.4257 24.1817C94.4257 26.1698 94.405 27.7682 94.405 28.2699C94.405 28.6604 94.7134 29.1248 95.5334 28.9762C99.239 27.8526 102.381 25.5762 104.399 22.5537C106.417 19.5311 107.179 15.9594 106.549 12.4766C105.918 8.9938 103.937 5.82672 100.958 3.54117C97.9799 1.25562 94.1983 0.00049233 90.2892 0V0Z" fill="#1B1F23"/>
</g>
<g clip-path="url(#clip1_1_239)">
<path d="M140.762 4.61723e-05C140.61 -0.00355885 140.458 0.0264451 140.318 0.088131C140.177 0.149817 140.05 0.24182 139.946 0.35823C139.846 0.468783 139.772 0.602245 139.73 0.748052C139.688 0.89386 139.679 1.04801 139.703 1.1983L144.186 27.8265C144.255 28.1633 144.432 28.4645 144.688 28.6784C144.944 28.8923 145.263 29.0057 145.59 28.999H167.08C167.325 29.009 167.565 28.9274 167.758 28.7685C167.951 28.6096 168.085 28.3837 168.135 28.1309L172.615 1.20367C172.639 1.05372 172.629 0.900012 172.587 0.754622C172.545 0.609232 172.471 0.476124 172.372 0.365759C172.268 0.249349 172.141 0.157346 172 0.0956603C171.86 0.0339745 171.708 0.00397052 171.556 0.00757553L140.762 4.61723e-05ZM159.624 19.2452H152.765L150.908 9.74416H161.287L159.624 19.2452Z" fill="#2684FF"/>
<path d="M171.188 9.74414H161.286L159.624 19.2452H152.765L144.666 28.6537C144.929 28.8732 145.254 28.9933 145.589 28.9946H167.085C167.33 29.0047 167.57 28.923 167.763 28.7641C167.956 28.6053 168.09 28.3794 168.14 28.1266L171.188 9.74414Z" fill="url(#paint0_linear_1_239)"/>
</g>
<g clip-path="url(#clip2_1_239)">
<path fill-rule="evenodd" clip-rule="evenodd" d="M41.9624 16.582L40.119 11.1609L36.4649 0.415743C36.4168 0.293349 36.3342 0.188534 36.2278 0.114739C36.1214 0.0409429 35.9961 0.00152588 35.8678 0.00152588C35.7395 0.00152588 35.6141 0.0409429 35.5077 0.114739C35.4014 0.188534 35.3188 0.293349 35.2706 0.415743L31.6166 11.1609H19.4898L15.8358 0.415743C15.7876 0.293349 15.705 0.188534 15.5987 0.114739C15.4923 0.0409429 15.3669 0.00152588 15.2386 0.00152588C15.1103 0.00152588 14.9849 0.0409429 14.8786 0.114739C14.7722 0.188534 14.6896 0.293349 14.6415 0.415743L10.9874 11.1609L9.14784 16.582C9.06718 16.826 9.06824 17.0908 9.15086 17.3341C9.23348 17.5773 9.39288 17.7851 9.60364 17.9242L25.5537 29.001L41.5037 17.9242C41.7145 17.7851 41.8739 17.5773 41.9565 17.3341C42.0391 17.0908 42.0402 16.826 41.9595 16.582" fill="#FC6D26"/>
<path fill-rule="evenodd" clip-rule="evenodd" d="M25.5541 29L31.6179 11.1559H19.4893L25.5541 28.996V29Z" fill="#E24329"/>
<path fill-rule="evenodd" clip-rule="evenodd" d="M25.554 29.001L19.4892 11.1599H10.9906L25.554 29.001Z" fill="#FC6D26"/>
<path fill-rule="evenodd" clip-rule="evenodd" d="M10.9897 11.1599L9.14729 16.581C9.06663 16.825 9.06769 17.0897 9.15031 17.333C9.23293 17.5763 9.39233 17.7841 9.60309 17.9232L25.5531 29L10.9897 11.1599Z" fill="#FCA326"/>
<path fill-rule="evenodd" clip-rule="evenodd" d="M10.9906 11.1599H19.4902L15.8361 0.414705C15.788 0.292311 15.7054 0.187497 15.599 0.113701C15.4926 0.0399053 15.3673 0.000488281 15.239 0.000488281C15.1107 0.000488281 14.9853 0.0399053 14.8789 0.113701C14.7725 0.187497 14.69 0.292311 14.6418 0.414705L10.9906 11.1599Z" fill="#E24329"/>
<path fill-rule="evenodd" clip-rule="evenodd" d="M25.5541 29.0009L31.6189 11.1609H40.1184L25.5541 29.0009Z" fill="#FC6D26"/>
<path fill-rule="evenodd" clip-rule="evenodd" d="M40.1175 11.1599L41.9608 16.581C42.0415 16.825 42.0404 17.0897 41.9578 17.333C41.8752 17.5763 41.7158 17.7841 41.505 17.9232L25.5541 29L40.1175 11.1599Z" fill="#FCA326"/>
<path fill-rule="evenodd" clip-rule="evenodd" d="M40.1175 11.1599H31.6179L35.272 0.414705C35.3201 0.292311 35.4027 0.187497 35.5091 0.113701C35.6155 0.0399053 35.7408 0.000488281 35.8691 0.000488281C35.9974 0.000488281 36.1228 0.0399053 36.2292 0.113701C36.3356 0.187497 36.4181 0.292311 36.4663 0.414705L40.1203 11.1599H40.1175Z" fill="#E24329"/>
</g>
<defs>
<linearGradient id="paint0_linear_1_239" x1="173.469" y1="12.4008" x2="162.355" y2="28.5316" gradientUnits="userSpaceOnUse">
<stop offset="0.18" stop-color="#0052CC"/>
<stop offset="1" stop-color="#2684FF"/>
</linearGradient>
<clipPath id="clip0_1_239">
<rect width="32.9357" height="29" fill="white" transform="translate(73.8214)"/>
</clipPath>
<clipPath id="clip1_1_239">
<rect width="32.9357" height="29" fill="white" transform="translate(139.693)"/>
</clipPath>
<clipPath id="clip2_1_239">
<rect width="32.9357" height="29" fill="white" transform="translate(9.08572)"/>
</clipPath>
</defs>
</svg>
