<svg width="136" height="40" viewBox="0 0 136 40" fill="none" xmlns="http://www.w3.org/2000/svg">
<g clip-path="url(#clip0_1_39)">
<path d="M58.0449 30.4444C52.1877 30.4444 48 26.25 48 20.7222C48 15.1944 52.216 11 57.96 11C60.7895 11 62.9966 12.0833 64.8358 13.6667L63.6757 16.0278C62.2609 14.6389 60.45 13.5 57.8468 13.5C53.6025 13.5 50.5466 16.4167 50.5466 20.7222C50.5466 25.0278 53.5742 27.9444 57.8751 27.9444C61.5818 27.9444 64.2133 25.75 64.6377 22.4167H57.0828V19.9167H67.5239V20.0278C67.5239 26.1389 64.0152 30.4444 58.0449 30.4444Z" fill="#12100C"/>
<path d="M70.1803 16.5556H72.6137V30.4444H70.1803V16.5556Z" fill="#12100C"/>
<path d="M84.1393 30.25V28.1389C83.3753 28.2778 82.7528 28.3611 81.8473 28.3611C80.6589 28.3611 80.2345 27.75 80.2345 26.6944V18.6389H84.111V16.5556H80.2345V12.8333H77.8011V16.5556H74.9998V18.6389H77.8011V26.5556C77.8011 29.5 79.131 30.5833 81.7059 30.5833C82.6113 30.5833 83.4036 30.4444 84.1393 30.25Z" fill="#12100C"/>
<path fill-rule="evenodd" clip-rule="evenodd" d="M89.0989 36H86.6655V16.5556H89.0989V18.5556C90.259 17.0278 91.9851 16.2222 94.0789 16.2222C98.0969 16.2222 100.898 19.2222 100.898 23.5C100.898 27.7778 98.0969 30.7778 94.0789 30.7778C92.07 30.7778 90.4288 30 89.0989 28.4167V36ZM88.9292 23.5C88.9292 26.5833 90.7967 28.5556 93.6545 28.5556C96.5123 28.5556 98.3798 26.5556 98.3798 23.5C98.3798 20.4444 96.5123 18.4444 93.6545 18.4444C90.7967 18.4444 88.9292 20.4167 88.9292 23.5Z" fill="#12100C"/>
<path fill-rule="evenodd" clip-rule="evenodd" d="M102.413 23.5C102.413 27.6667 105.582 30.7778 109.826 30.7778C114.071 30.7778 117.24 27.6667 117.24 23.5C117.24 19.3333 114.071 16.2222 109.826 16.2222C105.582 16.2222 102.413 19.3333 102.413 23.5ZM114.722 23.5C114.722 26.3889 112.769 28.4722 109.826 28.4722C106.884 28.4722 104.931 26.3889 104.931 23.5C104.931 20.6111 106.884 18.5278 109.826 18.5278C112.769 18.5278 114.722 20.6111 114.722 23.5Z" fill="#12100C"/>
<path fill-rule="evenodd" clip-rule="evenodd" d="M130.567 11H133V30.4444H130.567V28.4444C129.406 29.9722 127.68 30.7778 125.587 30.7778C121.569 30.7778 118.767 27.7778 118.767 23.5C118.767 19.2222 121.569 16.2222 125.587 16.2222C127.596 16.2222 129.237 17 130.567 18.5833V11ZM130.736 23.5C130.736 20.4167 128.869 18.4444 126.011 18.4444C123.153 18.4444 121.286 20.4444 121.286 23.5C121.286 26.5556 123.153 28.5556 126.011 28.5556C128.869 28.5556 130.736 26.5833 130.736 23.5Z" fill="#12100C"/>
<path d="M71.4026 14.7302C72.3643 14.7302 73.1439 13.9679 73.1439 13.0275C73.1439 12.087 72.3643 11.3247 71.4026 11.3247C70.4408 11.3247 69.6612 12.087 69.6612 13.0275C69.6612 13.9679 70.4408 14.7302 71.4026 14.7302Z" fill="#12100C"/>
<path fill-rule="evenodd" clip-rule="evenodd" d="M23.388 1.99199C24.4572 3.8871 23.8071 6.30126 21.936 7.38418L10.3015 14.1176C9.99402 14.2956 9.8042 14.6271 9.8042 14.9861V25.5563C9.8042 25.9153 9.99402 26.2467 10.3015 26.4247L19.511 31.7548C19.8141 31.9301 20.1859 31.9301 20.489 31.7548L29.6985 26.4247C30.006 26.2467 30.1958 25.9153 30.1958 25.5563V18.9825L21.9175 23.7132C20.0406 24.7858 17.6605 24.1142 16.6015 22.2133C15.5425 20.3123 16.2056 17.9017 18.0825 16.8292L29.9277 10.0602C33.5358 7.99827 38 10.6386 38 14.8346V26.3588C38 29.0581 36.572 31.5504 34.258 32.8896L23.6846 39.009C21.4014 40.3303 18.5986 40.3303 16.3154 39.009L5.74196 32.8896C3.42803 31.5504 2 29.0581 2 26.3588V14.1835C2 11.4843 3.42803 8.99201 5.74196 7.65282L18.064 0.521394C19.9351 -0.561524 22.3188 0.0968852 23.388 1.99199Z" fill="url(#paint0_linear_1_39)"/>
</g>
<defs>
<linearGradient id="paint0_linear_1_39" x1="29.0957" y1="6.04878" x2="10.2809" y2="35.2541" gradientUnits="userSpaceOnUse">
<stop stop-color="#FFB45B"/>
<stop offset="1" stop-color="#FF8A00"/>
</linearGradient>
<clipPath id="clip0_1_39">
<rect width="131" height="40" fill="white" transform="translate(2)"/>
</clipPath>
</defs>
</svg>
