<svg width="105" height="27" viewBox="0 0 105 27" fill="none" xmlns="http://www.w3.org/2000/svg">
<g clip-path="url(#clip0_1_879)">
<path d="M13.3981 0C6.75311 4.91597e-07 7.16806 2.98799 7.16806 2.98799L7.17547 6.08351H13.5166V7.01294H4.65679C4.65679 7.01294 0.404663 6.51292 0.404663 13.4651C0.404663 20.4174 4.11601 20.1708 4.11601 20.1708H6.33097V16.9447C6.33097 16.9447 6.21158 13.0964 9.98306 13.0964C13.7545 13.0964 16.2724 13.0964 16.2724 13.0964C16.2724 13.0964 19.8059 13.1557 19.8059 9.55541C19.8059 5.95515 19.8059 3.60248 19.8059 3.60248C19.8059 3.60248 20.3424 0 13.3981 0ZM9.90157 2.08161C10.5325 2.0816 11.0424 2.61034 11.0424 3.26451C11.0424 3.91869 10.5325 4.44742 9.90157 4.44742C9.27067 4.44742 8.76076 3.91869 8.76076 3.26451C8.76076 2.61034 9.27067 2.08161 9.90157 2.08161Z" fill="url(#paint0_linear_1_879)"/>
<path d="M13.5868 27C20.2318 27 19.8168 24.0121 19.8168 24.0121L19.8094 20.9165H13.4683V19.9871H22.3281C22.3281 19.9871 26.5802 20.4871 26.5802 13.5349C26.5802 6.58267 22.8689 6.82921 22.8689 6.82921H20.6539V10.0553C20.6539 10.0553 20.7733 13.9036 17.0018 13.9036C13.2304 13.9036 10.7125 13.9036 10.7125 13.9036C10.7125 13.9036 7.17898 13.8444 7.17898 17.4446C7.17898 21.0449 7.17898 23.3976 7.17898 23.3976C7.17898 23.3976 6.64249 27 13.5868 27ZM17.0833 24.9184C16.4524 24.9184 15.9425 24.3897 15.9425 23.7355C15.9425 23.0814 16.4524 22.5526 17.0833 22.5526C17.7142 22.5526 18.2241 23.0814 18.2241 23.7355C18.2241 24.3897 17.7142 24.9184 17.0833 24.9184Z" fill="url(#paint1_linear_1_879)"/>
</g>
<path d="M45.494 12.4336V18H43.619V3.78125H48.8632C50.4191 3.78125 51.6366 4.17839 52.5155 4.97266C53.4009 5.76693 53.8436 6.81836 53.8436 8.12695C53.8436 9.50716 53.4107 10.5716 52.5448 11.3203C51.6854 12.0625 50.4517 12.4336 48.8436 12.4336H45.494ZM45.494 10.9004H48.8632C49.8658 10.9004 50.634 10.666 51.1678 10.1973C51.7017 9.72201 51.9686 9.03841 51.9686 8.14648C51.9686 7.30013 51.7017 6.62305 51.1678 6.11523C50.634 5.60742 49.9016 5.34375 48.9706 5.32422H45.494V10.9004ZM59.5663 15.3535L62.0272 7.43359H63.9608L59.7128 19.6309C59.0552 21.3887 58.0103 22.2676 56.578 22.2676L56.2362 22.2383L55.5624 22.1113V20.6465L56.0507 20.6855C56.6626 20.6855 57.1379 20.5618 57.4764 20.3145C57.8215 20.0671 58.1047 19.6146 58.326 18.957L58.7264 17.8828L54.9569 7.43359H56.9296L59.5663 15.3535ZM68.0331 4.875V7.43359H70.0057V8.83008H68.0331V15.3828C68.0331 15.806 68.121 16.125 68.2968 16.3398C68.4725 16.5482 68.772 16.6523 69.1952 16.6523C69.4035 16.6523 69.69 16.6133 70.0546 16.5352V18C69.5793 18.1302 69.1171 18.1953 68.6678 18.1953C67.8606 18.1953 67.2518 17.9512 66.8417 17.4629C66.4315 16.9746 66.2264 16.2812 66.2264 15.3828V8.83008H64.3026V7.43359H66.2264V4.875H68.0331ZM73.9315 8.71289C74.7323 7.72982 75.774 7.23828 77.0565 7.23828C79.2896 7.23828 80.4159 8.49805 80.4354 11.0176V18H78.6288V11.0078C78.6223 10.2461 78.4465 9.68294 78.1014 9.31836C77.7629 8.95378 77.2323 8.77148 76.5096 8.77148C75.9237 8.77148 75.4094 8.92773 74.9667 9.24023C74.524 9.55273 74.1789 9.96289 73.9315 10.4707V18H72.1249V3H73.9315V8.71289ZM82.662 12.6191C82.662 11.584 82.8638 10.653 83.2675 9.82617C83.6776 8.99935 84.244 8.36133 84.9667 7.91211C85.6958 7.46289 86.5259 7.23828 87.4569 7.23828C88.8957 7.23828 90.0578 7.73633 90.9432 8.73242C91.8352 9.72852 92.2811 11.0534 92.2811 12.707V12.834C92.2811 13.8626 92.0826 14.7871 91.6854 15.6074C91.2948 16.4212 90.7316 17.056 89.996 17.5117C89.2668 17.9674 88.427 18.1953 87.4764 18.1953C86.0441 18.1953 84.882 17.6973 83.9901 16.7012C83.1047 15.7051 82.662 14.3867 82.662 12.7461V12.6191ZM84.4784 12.834C84.4784 14.0059 84.7486 14.9466 85.2889 15.6562C85.8358 16.3659 86.565 16.7207 87.4764 16.7207C88.3944 16.7207 89.1236 16.3626 89.6639 15.6465C90.2043 14.9238 90.4745 13.9147 90.4745 12.6191C90.4745 11.4603 90.1978 10.5228 89.6444 9.80664C89.0975 9.08398 88.3684 8.72266 87.4569 8.72266C86.565 8.72266 85.8456 9.07747 85.2987 9.78711C84.7518 10.4967 84.4784 11.5124 84.4784 12.834ZM96.2557 7.43359L96.3143 8.76172C97.1216 7.74609 98.1763 7.23828 99.4784 7.23828C101.711 7.23828 102.838 8.49805 102.857 11.0176V18H101.051V11.0078C101.044 10.2461 100.868 9.68294 100.523 9.31836C100.185 8.95378 99.6542 8.77148 98.9315 8.77148C98.3456 8.77148 97.8313 8.92773 97.3885 9.24023C96.9458 9.55273 96.6008 9.96289 96.3534 10.4707V18H94.5468V7.43359H96.2557Z" fill="#12100C"/>
<defs>
<linearGradient id="paint0_linear_1_879" x1="2.92019" y1="2.36004" x2="16.3336" y2="15.3394" gradientUnits="userSpaceOnUse">
<stop stop-color="#387EB8"/>
<stop offset="1" stop-color="#366994"/>
</linearGradient>
<linearGradient id="paint1_linear_1_879" x1="10.8822" y1="10.9262" x2="25.2642" y2="24.2146" gradientUnits="userSpaceOnUse">
<stop stop-color="#FFE052"/>
<stop offset="1" stop-color="#FFC331"/>
</linearGradient>
<clipPath id="clip0_1_879">
<rect width="26.1756" height="27" fill="white" transform="translate(0.404663)"/>
</clipPath>
</defs>
</svg>
